HIERARCHY
ROOT Hips
{
	OFFSET 0.000000 89.005402 0.000000
	CHANNELS 6 Xposition Yposition Zposition Xrotation Yrotation Zrotation
	JOINT Spine
	{
		OFFSET 0.116900 10.681000 0.373400
		CHANNELS 3 Xrotation Yrotation Zrotation
		JOINT Spine1
		{
			OFFSET 0.000000 13.840401 0.053500
			CHANNELS 3 Xrotation Yrotation Zrotation
			JOINT Spine2
			{
				OFFSET 0.000000 14.712700 -0.366200
				CHANNELS 3 Xrotation Yrotation Zrotation
				JOINT Neck
				{
					OFFSET 0.000000 35.415497 -3.314200
					CHANNELS 3 Xrotation Yrotation Zrotation
					JOINT Head
					{
						OFFSET 0.000000 16.899200 1.218300
						CHANNELS 3 Xrotation Yrotation Zrotation
						JOINT HeadTop_End
						{
							OFFSET 0.000000 22.206207 2.192500
							CHANNELS 3 Xrotation Yrotation Zrotation
							End Site
							{
								OFFSET 0.000000 22.314178 0.000000
							}
						}
					}
				}
				JOINT LeftShoulder
				{
					OFFSET 12.896400 26.716293 -4.548400
					CHANNELS 3 Xrotation Yrotation Zrotation
					JOINT LeftArm
					{
						OFFSET 19.027000 -4.857010 -1.718400
						CHANNELS 3 Xrotation Yrotation Zrotation
						JOINT LeftForeArm
						{
							OFFSET 24.179897 0.000000 0.000000
							CHANNELS 3 Xrotation Yrotation Zrotation
							JOINT LeftHand
							{
								OFFSET 27.156403 0.000000 0.000000
								CHANNELS 3 Xrotation Yrotation Zrotation
								JOINT LeftHandIndex1
								{
									OFFSET 16.441200 0.000000 0.000000
									CHANNELS 3 Xrotation Yrotation Zrotation
									JOINT LeftHandIndex2
									{
										OFFSET 4.821899 0.000000 0.000000
										CHANNELS 3 Xrotation Yrotation Zrotation
										JOINT LeftHandIndex3
										{
											OFFSET 6.386497 0.000000 0.000000
											CHANNELS 3 Xrotation Yrotation Zrotation
											JOINT LeftHandIndex4
											{
												OFFSET 5.188988 0.000000 0.000000
												CHANNELS 3 Xrotation Yrotation Zrotation
												End Site
												{
													OFFSET -0.178703 5.185913 0.000177
												}
											}
										}
									}
								}
								JOINT LeftHandThumb1
								{
									OFFSET 6.534897 -5.032593 5.900300
									CHANNELS 3 Xrotation Yrotation Zrotation
									JOINT LeftHandThumb2
									{
										OFFSET 3.818176 -2.204422 2.204423
										CHANNELS 3 Xrotation Yrotation Zrotation
										JOINT LeftHandThumb3
										{
											OFFSET 3.252098 -1.877594 1.877601
											CHANNELS 3 Xrotation Yrotation Zrotation
											JOINT LeftHandThumb4
											{
												OFFSET 5.251778 -3.032120 3.032117
												CHANNELS 3 Xrotation Yrotation Zrotation
												End Site
												{
													OFFSET 0.000023 6.780014 0.000000
												}
											}
										}
									}
								}
							}
						}
					}
				}
				JOINT RightShoulder
				{
					OFFSET -12.896300 26.716293 -4.548400
					CHANNELS 3 Xrotation Yrotation Zrotation
					JOINT RightArm
					{
						OFFSET -19.027000 -4.857010 -1.718400
						CHANNELS 3 Xrotation Yrotation Zrotation
						JOINT RightForeArm
						{
							OFFSET -24.179897 0.000000 0.000000
							CHANNELS 3 Xrotation Yrotation Zrotation
							JOINT RightHand
							{
								OFFSET -27.156403 0.000000 0.000000
								CHANNELS 3 Xrotation Yrotation Zrotation
								JOINT RightHandThumb1
								{
									OFFSET -6.591202 -4.852203 5.988100
									CHANNELS 3 Xrotation Yrotation Zrotation
									JOINT RightHandThumb2
									{
										OFFSET -3.818176 -2.204422 2.204423
										CHANNELS 3 Xrotation Yrotation Zrotation
										JOINT RightHandThumb3
										{
											OFFSET -3.252098 -1.877594 1.877601
											CHANNELS 3 Xrotation Yrotation Zrotation
											JOINT RightHandThumb4
											{
												OFFSET -5.251778 -3.032120 3.032117
												CHANNELS 3 Xrotation Yrotation Zrotation
												End Site
												{
													OFFSET -0.000023 6.780014 0.000000
												}
											}
										}
									}
								}
								JOINT RightHandIndex1
								{
									OFFSET -16.029404 0.000000 0.000000
									CHANNELS 3 Xrotation Yrotation Zrotation
									JOINT RightHandIndex2
									{
										OFFSET -5.213303 0.000000 0.000000
										CHANNELS 3 Xrotation Yrotation Zrotation
										JOINT RightHandIndex3
										{
											OFFSET -6.386528 0.000000 0.000000
											CHANNELS 3 Xrotation Yrotation Zrotation
											JOINT RightHandIndex4
											{
												OFFSET -5.189026 0.000000 0.000000
												CHANNELS 3 Xrotation Yrotation Zrotation
												End Site
												{
													OFFSET 0.236702 5.183624 0.001972
												}
											}
										}
									}
								}
							}
						}
					}
				}
			}
		}
	}
	JOINT LeftUpLeg
	{
		OFFSET 14.073000 -7.904099 -1.463000
		CHANNELS 3 Xrotation Yrotation Zrotation
		JOINT LeftLeg
		{
			OFFSET -0.109806 -34.073280 4.093200
			CHANNELS 3 Xrotation Yrotation Zrotation
			JOINT LeftFoot
			{
				OFFSET 0.109806 -29.899420 -6.319000
				CHANNELS 3 Xrotation Yrotation Zrotation
				JOINT LeftToeBase
				{
					OFFSET 1.551100 -14.988700 20.535801
					CHANNELS 3 Xrotation Yrotation Zrotation
					JOINT LeftToe_End
					{
						OFFSET 0.221200 0.570800 13.248301
						CHANNELS 3 Xrotation Yrotation Zrotation
						End Site
						{
							OFFSET 0.000000 13.262435 0.000000
						}
					}
				}
			}
		}
	}
	JOINT RightUpLeg
	{
		OFFSET -13.839300 -7.904099 -1.463000
		CHANNELS 3 Xrotation Yrotation Zrotation
		JOINT RightLeg
		{
			OFFSET 0.109694 -34.073219 4.093300
			CHANNELS 3 Xrotation Yrotation Zrotation
			JOINT RightFoot
			{
				OFFSET -0.109694 -29.899384 -6.319200
				CHANNELS 3 Xrotation Yrotation Zrotation
				JOINT RightToeBase
				{
					OFFSET -1.551100 -14.988700 20.535801
					CHANNELS 3 Xrotation Yrotation Zrotation
					JOINT RightToe_End
					{
						OFFSET -0.221200 0.570900 13.248299
						CHANNELS 3 Xrotation Yrotation Zrotation
						End Site
						{
							OFFSET 0.000000 13.262440 0.000000
						}
					}
				}
			}
		}
	}
}
MOTION
Frames: 8
Frame Time: 0.033333
-6.023674 82.971779 423.774994 178.405470 18.644818 -175.220225 -8.205854 8.988097 -3.306257 2.885766 0.867783 -2.840127 2.918911 0.925578 -2.789147 -2.267354 -1.126766 -1.980805 5.163784 9.476488 4.286313 -0.000000 -0.000000 -0.000000 2.179067 -9.179416 -8.047976 14.406956 29.963965 -77.628617 -0.000007 -34.684445 -0.000003 14.422656 3.046598 -0.816632 -0.599925 -1.191960 -15.838712 0.763106 3.155589 -27.183127 0.349276 2.169164 -18.292230 0.000000 -0.000001 -0.000003 -6.684705 7.621263 19.674611 12.443666 25.448704 -7.963740 5.136241 7.868242 -3.074651 0.000000 0.000001 0.000000 1.176339 8.510093 2.447320 54.046628 33.855882 65.975707 0.000027 63.444049 -0.000036 52.855521 43.637225 -78.072573 2.028307 4.773714 9.571606 4.642464 -8.639183 -0.222132 -7.858488 19.054611 -1.516467 0.000004 0.000001 0.000001 8.333982 12.771167 -38.552648 0.273799 -1.935663 16.100450 0.241774 -1.821147 15.123588 0.000002 -0.000001 -0.000001 -8.646183 4.383578 -14.752442 28.587764 3.059893 2.934000 -21.326499 -0.536727 0.386453 0.135914 -0.000722 0.212718 0.000000 0.000000 -0.000000 -2.454740 -11.504056 -15.975329 53.273918 -9.333706 -1.468311 14.384281 -8.236069 31.352665 -46.954945 -8.862100 12.617214 -0.000000 0.000001 -0.000000 
-5.964981 82.050713 422.947601 178.655291 17.733992 -174.534693 -7.572446 8.191282 -2.899770 2.875486 0.762739 -2.993524 2.908381 0.813677 -2.949339 -2.055259 -0.454484 -2.308379 5.231539 12.641308 3.684729 -0.000000 -0.000000 0.000000 2.546452 -10.572194 -8.378385 9.922147 27.756096 -75.391997 -0.000004 -32.041893 -0.000008 16.831391 3.251079 -2.443215 -0.673813 -1.516359 -15.590026 0.762997 3.155370 -27.181153 0.348357 2.166392 -18.268043 0.000001 -0.000001 -0.000002 -6.700546 7.737800 20.690859 12.203162 24.954414 -7.806904 4.916794 7.358033 -2.953353 -0.000001 -0.000000 -0.000003 1.128168 7.962232 2.448089 52.967161 30.554967 67.976932 0.000063 64.710831 -0.000056 50.178579 44.006014 -72.730170 1.538526 4.517432 9.972500 4.594831 -8.615006 -0.248085 -7.869314 19.058017 -1.515692 -0.000001 0.000001 0.000001 7.968354 12.398178 -38.277773 0.271528 -1.927795 16.033114 0.241527 -1.820220 15.115815 -0.000001 -0.000001 -0.000000 -8.877562 4.784968 -15.562448 31.751050 2.074718 2.731289 -23.738059 -0.617007 0.081753 0.165638 -0.001079 0.260219 0.000000 -0.000000 -0.000000 -9.379711 -9.217486 -18.815638 60.836283 -7.984158 -1.813606 20.678514 -4.027719 28.487134 -50.603294 -14.758780 16.138077 0.000000 -0.000000 -0.000000 
-5.646355 80.842255 422.187744 179.212921 17.294406 -173.799955 -5.862951 7.012629 -3.101586 2.933194 0.624650 -2.987730 2.961293 0.663011 -2.952149 -2.203035 0.161604 -2.473804 4.488081 15.734516 3.256485 -0.000000 0.000000 -0.000000 2.971081 -12.063187 -8.721499 4.929904 24.735639 -72.465664 0.000002 -29.942781 0.000023 20.161720 3.356241 -5.337360 -0.758322 -1.833526 -15.571368 0.762854 3.155085 -27.178496 0.347049 2.162425 -18.233270 -0.000002 -0.000000 0.000002 -6.637167 8.152890 21.761756 12.058648 24.653539 -7.712780 4.708170 6.866382 -2.837779 -0.000000 0.000001 0.000000 1.117980 7.796103 2.772341 51.747169 27.364137 69.249246 -0.000032 65.598052 0.000024 48.522241 43.868683 -68.225503 1.698002 4.654639 9.734108 4.643973 -8.637852 -0.222407 -7.857497 19.054896 -1.516889 0.000003 -0.000001 0.000001 8.123818 12.566371 -38.364640 0.272649 -1.931712 16.066934 0.241785 -1.821180 15.123929 0.000002 -0.000001 -0.000000 -8.870095 4.985726 -16.557323 35.146712 1.857937 2.560268 -26.449081 -0.702141 0.351688 0.181592 -0.001281 0.285372 0.000000 0.000001 -0.000000 -17.959636 -4.214457 -20.576701 73.918001 -7.755498 -2.363824 25.405054 -1.343557 25.018466 -35.690023 -13.543679 23.633785 0.000001 0.000001 0.000000 
-5.024233 79.292175 421.322052 180.335613 17.072850 -173.264605 -3.001774 5.335815 -3.833030 3.093333 0.445139 -2.780859 3.112802 0.465841 -2.755578 -2.846947 0.747477 -2.550022 2.941742 18.780669 2.964424 -0.000000 0.000000 0.000000 3.371317 -13.333894 -9.013161 -0.062660 20.264750 -68.835432 0.000005 -28.635010 0.000027 23.699723 3.209543 -9.368294 -0.853735 -2.053269 -16.068334 0.762681 3.154781 -27.175549 0.345472 2.157622 -18.191382 -0.000001 0.000002 0.000002 -6.499228 8.814329 22.555045 12.022350 24.577476 -7.689147 4.554216 6.499356 -2.752263 -0.000000 -0.000000 0.000000 1.125926 7.879683 3.168284 50.189617 24.488443 69.787956 -0.000035 66.047861 0.000033 47.753175 43.378241 -65.012199 1.475091 4.454969 8.940322 5.071919 -8.880784 0.014542 -7.764586 19.021688 -1.522926 0.000002 0.000000 0.000000 7.953198 12.569094 -37.620989 0.277092 -1.947040 16.197800 0.243912 -1.829049 15.190832 0.000002 -0.000000 -0.000000 -7.911361 5.315855 -17.407782 38.522117 2.029246 1.990436 -29.540671 -1.358645 2.217772 -0.429190 0.000003 -0.000003 0.000000 -0.000002 0.000000 -26.526288 2.089109 -20.009645 86.518682 -7.889689 -2.471887 32.834540 2.498706 18.615978 -7.949404 -0.019179 0.049151 0.000001 -0.000002 0.000001 
-4.222505 77.837334 420.079254 181.706077 16.895380 -173.052541 0.443418 3.235016 -4.790266 3.372806 0.234042 -2.399014 3.382574 0.237071 -2.384946 -3.936403 1.288571 -2.591160 0.692094 21.626928 2.787324 -0.000000 -0.000001 0.000000 3.696606 -14.227001 -9.234216 -4.401905 14.073135 -64.695279 0.000002 -28.151916 0.000005 26.102618 2.951690 -13.582090 -0.974968 -2.130076 -17.367095 0.762514 3.154452 -27.172530 0.343860 2.152712 -18.148467 -0.000001 0.000000 0.000000 -6.335256 9.490813 22.927179 12.015122 24.562299 -7.684422 4.459205 6.271008 -2.699419 -0.000004 0.000001 0.000003 1.130760 7.983939 3.435131 48.133835 21.558461 70.142211 -0.000012 66.183809 -0.000008 47.411949 42.750383 -61.761330 0.530658 3.685117 7.275999 6.097400 -9.512095 0.601288 -7.558958 18.932975 -1.532290 0.000001 0.000000 0.000001 7.212558 12.211478 -35.511537 0.286290 -1.978403 16.466130 0.249019 -1.847757 15.350025 -0.000001 -0.000001 -0.000000 -6.057131 5.552830 -18.063450 41.473762 1.846388 1.951686 -32.814715 -1.886303 3.504653 -0.887202 0.000001 0.000000 0.000000 0.000001 -0.000000 -34.781007 7.843431 -16.943990 98.043192 -5.369236 -1.908484 39.682293 3.537057 14.215206 -7.551509 -0.000004 0.000004 -0.000001 0.000000 0.000003 
-3.410378 76.911659 418.332855 182.679010 16.455439 -173.165977 3.602240 0.860000 -5.554634 3.750379 0.005096 -1.920694 3.752094 -0.003529 -1.918073 -5.281947 1.731153 -2.577507 -2.079832 24.023124 2.755258 -0.000000 0.000001 -0.000000 3.934495 -14.772128 -9.398994 -7.463106 6.537488 -60.287498 -0.000001 -28.442492 -0.000017 26.390733 3.069690 -17.084962 -1.131067 -2.114684 -19.338402 0.762323 3.154070 -27.169036 0.342426 2.148347 -18.110311 0.000000 0.000000 -0.000002 -6.187000 10.027420 23.002996 11.950431 24.426208 -7.642349 4.395485 6.117086 -2.663894 -0.000001 0.000000 0.000002 1.120083 7.874723 3.568904 45.392437 17.911850 71.031754 0.000032 66.122686 -0.000039 47.112592 42.725821 -57.290537 -0.952612 2.558367 4.575417 7.702671 -10.536392 1.565063 -7.274694 18.774035 -1.537967 0.000001 0.000001 0.000000 6.105627 11.572086 -32.217606 0.300929 -2.027229 16.885151 0.257169 -1.877155 15.600724 -0.000002 0.000000 -0.000000 -3.592876 5.349437 -18.311881 42.924600 1.302923 2.372496 -35.621448 -2.165844 3.782665 -1.477385 -0.000004 0.000002 0.000000 -0.000000 0.000001 -43.037353 12.176048 -12.860272 107.976972 -3.413405 -0.936782 43.701674 3.526057 12.489141 -7.917087 0.000008 -0.000020 0.000000 0.000000 -0.000000 
-2.667798 76.603256 416.202026 182.849136 15.345854 -173.377372 6.010681 -1.638779 -5.949517 4.115021 -0.236444 -1.447758 4.111362 -0.249357 -1.456475 -6.703623 2.012920 -2.426978 -5.018205 25.770391 2.843779 -0.000000 -0.000001 -0.000000 4.068622 -15.031763 -9.502119 -9.006287 -1.495670 -55.816989 -0.000004 -29.294965 -0.000005 24.809969 3.998709 -19.898962 -1.312251 -2.130864 -21.330828 0.762076 3.153586 -27.164468 0.341272 2.144825 -18.079733 -0.000002 0.000000 -0.000002 -6.051259 10.497307 23.016184 11.807806 24.124025 -7.549592 4.328284 5.954088 -2.626428 0.000002 -0.000004 -0.000001 1.082257 7.361572 3.721682 41.895363 12.948235 72.931080 0.000015 65.904024 -0.000018 45.397778 44.595562 -52.429403 -2.736115 1.426519 1.018837 9.689231 -11.719618 2.855612 -6.984310 18.540880 -1.533678 0.000003 -0.000000 0.000000 4.861015 10.702069 -28.151113 0.320155 -2.089461 17.420281 0.267745 -1.914616 15.920560 0.000000 -0.000002 0.000000 -1.103851 5.122129 -17.854203 42.834661 -0.136323 2.526042 -37.281563 -2.533631 4.170403 -1.867347 0.000007 -0.000003 0.000000 0.000000 -0.000000 -51.178208 15.118928 -9.161207 115.263663 -3.000269 0.033755 45.465830 3.871880 12.547671 -7.785233 0.000005 -0.000006 -0.000000 0.000000 -0.000001 
-2.124537 76.921341 413.941833 182.268406 13.300835 -173.725356 7.819538 -4.173351 -5.789614 4.303522 -0.488603 -1.044505 4.296876 -0.501989 -1.063577 -8.132107 2.099914 -2.063606 -7.596064 26.804782 2.943542 -0.000000 -0.000000 -0.000000 4.054580 -14.991768 -9.493316 -9.264854 -9.463886 -51.406831 -0.000011 -30.330780 -0.000013 22.505694 5.698487 -22.868691 -1.496817 -2.278216 -22.663923 0.761759 3.152943 -27.158480 0.340391 2.142130 -18.056211 0.000000 -0.000001 -0.000004 -5.903025 11.035765 23.095981 11.621146 23.724022 -7.428278 4.237547 5.732813 -2.575777 0.000002 0.000001 0.000001 1.003753 6.314401 4.049075 37.712917 6.508968 75.596049 -0.000023 65.987571 0.000007 40.571706 48.927319 -46.615983 -4.639105 0.517798 -3.097445 11.811034 -12.682865 4.403998 -6.751136 18.236158 -1.520217 -0.000002 -0.000000 0.000000 3.618463 9.591690 -23.662135 0.342343 -2.158924 18.019420 0.279956 -1.956941 16.282406 0.000000 -0.000000 0.000000 0.813965 4.900098 -16.927989 41.480654 -2.113999 2.502662 -37.045037 -3.245510 5.533500 -2.045690 -0.000001 0.000002 -0.000000 -0.000001 0.000000 -58.601753 16.120467 -6.780117 119.126299 -2.661987 0.614273 45.271190 4.693503 15.134722 -7.516084 0.000002 0.000007 -0.000000 -0.000000 -0.000002 
